<?xml version="1.0" encoding="UTF-8"?>
<svg version="1.1" xmlns="http://www.w3.org/2000/svg" width="500" height="500">
<path d="M0 0 C0.77196339 0.01281384 1.54392677 0.02562767 2.33928299 0.0388298 C11.51833672 0.19299184 20.69653918 0.37406034 29.875 0.5625 C29.875 14.4225 29.875 28.2825 29.875 42.5625 C-5.765 42.5625 -41.405 42.5625 -78.125 42.5625 C-78.125 55.7625 -78.125 68.9625 -78.125 82.5625 C-45.785 82.5625 -13.445 82.5625 19.875 82.5625 C19.875 96.4225 19.875 110.2825 19.875 124.5625 C-12.465 124.5625 -44.805 124.5625 -78.125 124.5625 C-78.125 137.7625 -78.125 150.9625 -78.125 164.5625 C-74.87430664 164.55202637 -71.62361328 164.54155273 -68.27441406 164.53076172 C-57.54558744 164.49765266 -46.81675858 164.47554258 -36.08789444 164.45887566 C-29.58168083 164.44842931 -23.07551947 164.43425449 -16.56933594 164.41162109 C-10.29294062 164.3899232 -4.01659563 164.37793779 2.25983429 164.37274551 C4.65687096 164.36904427 7.05390481 164.36181689 9.4509201 164.35103989 C12.80295306 164.33656571 16.15477686 164.33452037 19.50683594 164.33544922 C20.50233459 164.32825867 21.49783325 164.32106812 22.52349854 164.31365967 C23.43772583 164.316409 24.35195313 164.31915833 25.29388428 164.32199097 C26.08662624 164.32014738 26.87936821 164.31830379 27.69613266 164.31640434 C30.13167771 164.59149087 31.76288177 165.34852252 33.875 166.5625 C33.89974322 171.61620732 33.91788053 176.66987926 33.92993164 181.72363281 C33.9349563 183.44238906 33.9417771 185.16114105 33.95043945 186.87988281 C33.9625868 189.35222426 33.96824703 191.82450912 33.97265625 194.296875 C33.97781754 195.06368591 33.98297882 195.83049683 33.98829651 196.62054443 C33.98866245 200.11099615 33.81252738 203.20524473 32.875 206.5625 C-7.56990737 207.21553574 -48.01073023 207.67075568 -88.46136856 207.68588257 C-91.31884347 207.6875036 -94.17631048 207.69106472 -97.03378296 207.69506836 C-101.53302073 207.7008797 -106.03222446 207.70117893 -110.53146362 207.69681931 C-112.19307436 207.6958224 -113.85468687 207.69641045 -115.51629639 207.69865799 C-117.78327939 207.70118778 -120.0501631 207.69743934 -122.31713867 207.69189453 C-124.22712898 207.69070114 -124.22712898 207.69070114 -126.17570496 207.68948364 C-129.125 207.5625 -129.125 207.5625 -131.125 206.5625 C-131.25796295 196.32788036 -131.3884679 186.09323224 -131.51615143 175.8585453 C-131.57556289 171.10197073 -131.63570436 166.34540814 -131.69775391 161.58886719 C-132.19944646 123.0362241 -132.12785793 84.52382638 -131.66143799 45.97088623 C-131.59964756 40.82696211 -131.54017334 35.68301118 -131.48046875 30.5390625 C-131.36416786 20.54684843 -131.24542602 10.55466515 -131.125 0.5625 C-117.60440173 0.35689262 -104.08358529 0.17062486 -90.5625 0 C-89.55432472 -0.01273327 -88.54614944 -0.02546654 -87.5074234 -0.03858566 C-58.33032868 -0.40187413 -29.17582125 -0.48483769 0 0 Z " fill="#FDB8DF" transform="translate(449.125,150.4375)"/>
<path d="M0 0 C131.95769882 0 131.95769882 0 154.68359375 21.55859375 C169.56055957 37.2383638 173.75121224 56.17313847 173.21875 77.1953125 C172.41233862 97.65396925 165.51674156 116.17086933 150.296875 130.23828125 C132.76059733 145.47514855 108.78115113 149.22633552 86.30078125 149.09765625 C85.01995667 149.09614563 85.01995667 149.09614563 83.71325684 149.09460449 C80.5796572 149.08944527 77.44607698 149.07548523 74.3125 149.0625 C67.279375 149.041875 60.24625 149.02125 53 149 C53 167.81 53 186.62 53 206 C49.41997297 206.71600541 46.77934842 207.12587634 43.24145508 207.12939453 C42.32733353 207.13254669 41.41321198 207.13569885 40.47138977 207.13894653 C39.49727646 207.1369223 38.52316315 207.13489807 37.51953125 207.1328125 C36.51033127 207.13376923 35.50113129 207.13472595 34.46134949 207.13571167 C32.33401426 207.13639078 30.20667693 207.13455527 28.0793457 207.13037109 C24.81391795 207.12500233 21.5486267 207.13033377 18.28320312 207.13671875 C16.21614553 207.13605825 14.14908802 207.13477767 12.08203125 207.1328125 C11.10184525 207.13483673 10.12165924 207.13686096 9.11177063 207.13894653 C7.75477303 207.13421829 7.75477303 207.13421829 6.37036133 207.12939453 C5.57269852 207.12859894 4.77503571 207.12780334 3.95320129 207.12698364 C2 207 2 207 0 206 C0 138.02 0 70.04 0 0 Z M53 42 C53 63.12 53 84.24 53 106 C53.99 106.33 54.98 106.66 56 107 C56.03738281 106.38511719 56.07476562 105.77023437 56.11328125 105.13671875 C56.21189453 103.92435547 56.21189453 103.92435547 56.3125 102.6875 C56.37050781 101.88699219 56.42851563 101.08648437 56.48828125 100.26171875 C57.09390258 97.58496491 57.84066555 96.65428725 60 95 C63.99369172 93.95816738 67.01949697 93.94633743 71 95 C70.67 95.99 70.34 96.98 70 98 C68.72125 97.95875 67.4425 97.9175 66.125 97.875 C63.98128508 97.75787127 63.98128508 97.75787127 62 98 C61.34 98.66 60.68 99.32 60 100 C59.92727438 102.55460214 59.92727438 102.55460214 61 105 C63.64320975 106.57163823 65.14601657 107.17079669 68.1875 106.5625 C68.785625 106.376875 69.38375 106.19125 70 106 C70.66 106.33 71.32 106.66 72 107 C74.55157655 107.0716735 77.07472971 107.09308442 79.625 107.0625 C80.68460938 107.05573242 80.68460938 107.05573242 81.765625 107.04882812 C83.51045275 107.03703875 85.255237 107.01910324 87 107 C86.45035274 103.65004457 85.70079152 101.08839895 83.9375 98.1875 C83.298125 97.135625 82.65875 96.08375 82 95 C84.475 94.505 84.475 94.505 87 94 C87.66 95.65 88.32 97.3 89 99 C89.66 99 90.32 99 91 99 C91.66 97.35 92.32 95.7 93 94 C94.65 94 96.3 94 98 94 C97.566875 94.69867188 97.13375 95.39734375 96.6875 96.1171875 C96.130625 97.02726562 95.57375 97.93734375 95 98.875 C94.443125 99.77992188 93.88625 100.68484375 93.3125 101.6171875 C91.83917671 103.83857467 91.83917671 103.83857467 92 106 C100.32011194 105.80527398 107.4022577 103.96629272 113.8203125 98.4296875 C121.04879792 90.62001733 123.31781552 81.4879121 123 71 C121.59722435 61.31854839 118.42573077 54.49958836 110.7734375 48.31640625 C99.69834841 40.09547007 84.88443631 41.75205449 71.8125 41.875 C65.604375 41.91625 59.39625 41.9575 53 42 Z " fill="#FDB8DF" transform="translate(25,151)"/>
<path d="M0 0 C0.9215538 0.00222061 1.8431076 0.00444122 2.79258728 0.00672913 C3.83359085 0.00680466 4.87459442 0.00688019 5.94714355 0.00695801 C7.07941879 0.01211929 8.21169403 0.01728058 9.37828064 0.02259827 C10.53106003 0.02401321 11.68383942 0.02542816 12.87155151 0.02688599 C16.57043503 0.03250446 20.26925903 0.0450601 23.96812439 0.05775452 C26.46877456 0.06276714 28.96942567 0.06733045 31.47007751 0.07142639 C37.61528027 0.0824799 43.76044808 0.099236 49.90562439 0.12025452 C50.82989033 10.94014899 50.99195718 21.73208459 50.96812439 32.58509827 C50.96668427 33.28453175 50.96524414 33.98396523 50.96376038 34.70459366 C50.94965836 40.56313741 50.92260124 46.42161174 50.89524841 52.28010559 C50.87203746 57.36092785 50.85357022 62.44173284 50.84312439 67.52259827 C50.8416037 68.21656078 50.84008301 68.9105233 50.83851624 69.62551498 C50.8234798 80.15266495 51.07825629 90.62394514 51.90562439 101.12025452 C53.22562439 98.81025452 54.54562439 96.50025452 55.90562439 94.12025452 C57.55562439 94.12025452 59.20562439 94.12025452 60.90562439 94.12025452 C61.91259007 96.2210966 62.91098329 98.3260494 63.90562439 100.43275452 C64.46249939 101.60451233 65.01937439 102.77627014 65.59312439 103.98353577 C66.90562439 107.12025452 66.90562439 107.12025452 66.90562439 110.12025452 C65.25562439 110.12025452 63.60562439 110.12025452 61.90562439 110.12025452 C61.90562439 109.13025452 61.90562439 108.14025452 61.90562439 107.12025452 C59.56250309 107.37586775 57.22719036 107.71296224 54.90562439 108.12025452 C54.57562439 108.78025452 54.24562439 109.44025452 53.90562439 110.12025452 C52.91562439 110.12025452 51.92562439 110.12025452 50.90562439 110.12025452 C50.907845 110.93948395 50.91006561 111.75871338 50.91235352 112.60276794 C50.93267602 120.45308917 50.94775729 128.30339704 50.95743656 136.15373802 C50.96258053 140.18637113 50.96951651 144.21898191 50.98106384 148.25160217 C51.03495621 167.56884665 50.87623706 186.82119301 49.90562439 206.12025452 C46.95879836 206.96762701 44.33868198 207.24660087 41.276474 207.24964905 C39.91001991 207.25437729 39.91001991 207.25437729 38.51596069 207.25920105 C37.53982315 207.25717682 36.56368561 207.25515259 35.55796814 207.25306702 C34.54972488 207.25402374 33.54148163 207.25498047 32.50268555 207.25596619 C30.37357012 207.25664608 28.24445262 207.25480507 26.11534119 207.25062561 C22.85202903 207.24526913 19.58885417 207.25057993 16.32554626 207.25697327 C14.25718659 207.25631256 12.18882699 207.25503155 10.12046814 207.25306702 C9.14230637 207.25509125 8.16414459 207.25711548 7.15634155 207.25920105 C6.24852432 207.25604889 5.34070709 207.25289673 4.40538025 207.24964905 C3.20769264 207.24845566 3.20769264 207.24845566 1.98580933 207.24723816 C-0.09437561 207.12025452 -0.09437561 207.12025452 -3.09437561 206.12025452 C-3.11770125 179.40884651 -3.13535313 152.69744003 -3.14618778 125.9860239 C-3.15135145 113.58439354 -3.1583955 101.1827695 -3.16981506 88.78114319 C-3.17975973 77.97612836 -3.18622852 67.1711181 -3.18846411 56.36609882 C-3.18977158 50.64110971 -3.19285976 44.91613369 -3.20010567 39.19114876 C-3.20686246 33.80931364 -3.20899327 28.42749707 -3.20748329 23.04565811 C-3.20775977 21.0642442 -3.20976691 19.08282971 -3.21358109 17.10141945 C-3.21851302 14.40862364 -3.21737576 11.71589906 -3.21463013 9.02310181 C-3.21754297 8.22837025 -3.22045581 7.43363869 -3.22345692 6.61482435 C-3.20557646 0.18405727 -3.20557646 0.18405727 0 0 Z M57.90562439 100.12025452 C57.57562439 101.11025452 57.24562439 102.10025452 56.90562439 103.12025452 C57.89562439 102.79025452 58.88562439 102.46025452 59.90562439 102.12025452 C59.24562439 101.46025452 58.58562439 100.80025452 57.90562439 100.12025452 Z " fill="#FEB8E0" transform="translate(227.09437561035156,150.87974548339844)"/>
<path d="M0 0 C0.33 0 0.66 0 1 0 C1 12.87 1 25.74 1 39 C33.34 39 65.68 39 99 39 C99 47.25 99 55.5 99 64 C92.25 67.375 92.25 67.375 87.125 67.1875 C86.15820312 67.16042969 85.19140625 67.13335937 84.1953125 67.10546875 C83.47085938 67.07066406 82.74640625 67.03585937 82 67 C81.95101562 66.07316406 81.90203125 65.14632812 81.8515625 64.19140625 C81.73941406 62.39509766 81.73941406 62.39509766 81.625 60.5625 C81.52058594 58.77005859 81.52058594 58.77005859 81.4140625 56.94140625 C81.20910156 55.48541016 81.20910156 55.48541016 81 54 C80.34 53.67 79.68 53.34 79 53 C79.66 51.68 80.32 50.36 81 49 C83.45873768 49.14058476 85.91685175 49.28722999 88.375 49.4375 C89.07367188 49.47681641 89.77234375 49.51613281 90.4921875 49.55664062 C95.7734375 49.88671875 95.7734375 49.88671875 98 51 C97.54177532 47.53058454 97.10868317 44.32604951 96 41 C94.81427399 41.00222061 93.62854797 41.00444122 92.40689087 41.00672913 C81.25267695 41.02696836 70.09846675 41.04197593 58.94423866 41.05181217 C53.20923728 41.057039 47.47425068 41.06413305 41.73925781 41.07543945 C36.20851877 41.08627539 30.67779397 41.09227835 25.14704514 41.09487724 C23.03305207 41.09673021 20.91905981 41.10034838 18.80507278 41.10573006 C15.85261578 41.11294983 12.90021826 41.11399054 9.94775391 41.11352539 C8.62605949 41.1189183 8.62605949 41.1189183 7.27766418 41.12442017 C1.22810432 41.11405216 1.22810432 41.11405216 -1 40 C-0.67 26.8 -0.34 13.6 0 0 Z " fill="#EDC1DB" transform="translate(370,194)"/>
<path d="M0 0 C0.66 0 1.32 0 2 0 C2.02578388 6.61213325 2.04304437 13.22425312 2.05493164 19.83642578 C2.05989783 22.07633956 2.06667304 24.31625021 2.07543945 26.55615234 C2.12947985 40.74016656 1.88363724 54.84187991 1 69 C1.99 68.505 1.99 68.505 3 68 C3.47001033 64.72444392 3.47001033 64.72444392 3.625 60.9375 C3.69976563 59.64714844 3.77453125 58.35679687 3.8515625 57.02734375 C3.90054687 56.02832031 3.94953125 55.02929688 4 54 C5.77007714 53.91885894 7.54122098 53.86074495 9.3125 53.8125 C10.29863281 53.77769531 11.28476562 53.74289063 12.30078125 53.70703125 C15 54 15 54 16.83984375 55.328125 C18.6113272 57.88096984 18.24747147 59.96847444 18 63 C17.814375 63.721875 17.62875 64.44375 17.4375 65.1875 C16.77806294 67.2175204 16.77806294 67.2175204 18 70 C15.125 70.125 15.125 70.125 12 70 C11.34 69.34 10.68 68.68 10 68 C9.67 68.99 9.34 69.98 9 71 C6 72 6 72 1 71 C1 79.91 1 88.82 1 98 C0.67 98 0.34 98 0 98 C0 65.66 0 33.32 0 0 Z " fill="#F2C0DC" transform="translate(25,191)"/>
<path d="M0 0 C6.34911318 -0.29303599 10.33974243 0.10965571 16 3 C16 6.3 16 9.6 16 13 C10.51220899 16.46597327 6.29810865 16.25532873 0 16 C0 10.72 0 5.44 0 0 Z " fill="#180D13" transform="translate(453,245)"/>
<path d="M0 0 C10.625 -0.25 10.625 -0.25 14 2 C13.814375 2.969375 13.62875 3.93875 13.4375 4.9375 C13.293125 5.948125 13.14875 6.95875 13 8 C13.33 8.33 13.66 8.66 14 9 C14.1875 11.4375 14.1875 11.4375 14 14 C12 16 12 16 9.1796875 16.1953125 C6.11979167 16.13020833 3.05989583 16.06510417 0 16 C0 10.72 0 5.44 0 0 Z " fill="#15070F" transform="translate(169,245)"/>
<path d="M0 0 C9.625 -0.25 9.625 -0.25 13 2 C13.125 5.0625 13.125 5.0625 13 8 C13.33 8.33 13.66 8.66 14 9 C14.25 11.4375 14.25 11.4375 14 14 C9.43362969 17.04424687 5.43284541 16.12783166 0 16 C0 10.72 0 5.44 0 0 Z " fill="#210F1A" transform="translate(398,245)"/>
<path d="M0 0 C2.89357127 2.59679473 3.86089908 4.16539447 4.5 8 C3.85478339 11.87129965 2.96045738 13.40959979 0 16 C-4.06082892 17.38186872 -7.01198109 17.44145526 -10.9375 15.6875 C-13 14 -13 14 -14 12 C-14.58203713 4.78273959 -14.58203713 4.78273959 -12.1875 1.5625 C-7.97841838 -1.44398687 -4.90806872 -1.20549056 0 0 Z M-8 4 C-8.66 5.65 -9.32 7.3 -10 9 C-8.68 10.32 -7.36 11.64 -6 13 C-4.35 12.34 -2.7 11.68 -1 11 C-0.83312552 8.58354218 -0.83312552 8.58354218 -1 6 C-2.83883881 3.71271266 -2.83883881 3.71271266 -5.625 3.875 C-6.40875 3.91625 -7.1925 3.9575 -8 4 Z " fill="#030303" transform="translate(495,245)"/>
<path d="M0 0 C1.5675 -0.061875 3.135 -0.12375 4.75 -0.1875 C6.07257813 -0.23970703 6.07257813 -0.23970703 7.421875 -0.29296875 C10.44671583 0.05076316 11.75583602 1.00227459 14 3 C13.67 5.31 13.34 7.62 13 10 C12.34 10 11.68 10 11 10 C11.99 11.98 12.98 13.96 14 16 C11.5625 15.625 11.5625 15.625 9 15 C8.67 14.34 8.34 13.68 8 13 C5.97536745 12.34786708 5.97536745 12.34786708 4 12 C4 13.32 4 14.64 4 16 C2.68 16 1.36 16 0 16 C0 10.72 0 5.44 0 0 Z " fill="#220F19" transform="translate(251,245)"/>
<path d="M0 0 C1.5675 -0.061875 3.135 -0.12375 4.75 -0.1875 C6.07257813 -0.23970703 6.07257813 -0.23970703 7.421875 -0.29296875 C10.44671583 0.05076316 11.75583602 1.00227459 14 3 C13.67 5.31 13.34 7.62 13 10 C12.34 10 11.68 10 11 10 C11.99 11.98 12.98 13.96 14 16 C11.5625 15.625 11.5625 15.625 9 15 C8.67 14.34 8.34 13.68 8 13 C5.97536745 12.34786708 5.97536745 12.34786708 4 12 C4 13.32 4 14.64 4 16 C2.68 16 1.36 16 0 16 C0 10.72 0 5.44 0 0 Z " fill="#1E0F18" transform="translate(224,245)"/>
<path d="M0 0 C1.588125 -0.061875 3.17625 -0.12375 4.8125 -0.1875 C6.15248047 -0.23970703 6.15248047 -0.23970703 7.51953125 -0.29296875 C10 0 10 0 11.80859375 1.328125 C13.62363374 3.87513193 13.24892086 5.95071946 13 9 C12.814375 9.721875 12.62875 10.44375 12.4375 11.1875 C11.77806294 13.2175204 11.77806294 13.2175204 13 16 C11.68 16 10.36 16 9 16 C8.34 15.01 7.68 14.02 7 13 C4.94074861 12.27617533 4.94074861 12.27617533 3 12 C3 13.32 3 14.64 3 16 C2.01 16 1.02 16 0 16 C0 10.72 0 5.44 0 0 Z " fill="#0B0007" transform="translate(30,245)"/>
<path d="M0 0 C0 5.61 0 11.22 0 17 C-32.34 17 -64.68 17 -98 17 C-98 29.87 -98 42.74 -98 56 C-98.33 56 -98.66 56 -99 56 C-99 42.8 -99 29.6 -99 16 C-96.1326416 15.97494385 -93.2652832 15.9498877 -90.31103516 15.92407227 C-80.85539292 15.8407334 -71.39980654 15.75203028 -61.94423866 15.66066074 C-56.2092649 15.60540937 -50.47428606 15.55198583 -44.73925781 15.50268555 C-39.20847394 15.45507467 -33.67775352 15.40273307 -28.14704514 15.34705925 C-26.03307035 15.32662083 -23.91907815 15.30791025 -21.80507278 15.29092598 C-18.85256889 15.26691488 -15.90018566 15.23685585 -12.94775391 15.20532227 C-12.0666243 15.1995668 -11.18549469 15.19381134 -10.27766418 15.18788147 C-6.00315601 15.25759791 -6.00315601 15.25759791 -2 14 C-2 10.7 -2 7.4 -2 4 C-3.32 3.34 -4.64 2.68 -6 2 C-2.25 0 -2.25 0 0 0 Z " fill="#EDC2DC" transform="translate(469,258)"/>
<path d="M0 0 C1.918125 -0.0825 3.83625 -0.165 5.8125 -0.25 C7.43091797 -0.31960937 7.43091797 -0.31960937 9.08203125 -0.390625 C12 0 12 0 13.89453125 1.8203125 C15.46087127 4.90871438 14.99127354 6.74295838 14 10 C10.5647952 12.29013653 9.014669 12.17842973 5 12 C5 13.32 5 14.64 5 16 C3.35 16 1.7 16 0 16 C0 10.72 0 5.44 0 0 Z M5 4 C5 5.32 5 6.64 5 8 C6.65 7.67 8.3 7.34 10 7 C10 6.01 10 5.02 10 4 C8.35 4 6.7 4 5 4 Z " fill="#050505" transform="translate(2,245)"/>
<path d="M0 0 C0.9215538 0.00222061 1.8431076 0.00444122 2.79258728 0.00672913 C3.83359085 0.00680466 4.87459442 0.00688019 5.94714355 0.00695801 C7.07941879 0.01211929 8.21169403 0.01728058 9.37828064 0.02259827 C10.53106003 0.02401321 11.68383942 0.02542816 12.87155151 0.02688599 C16.57043503 0.03250446 20.26925903 0.0450601 23.96812439 0.05775452 C26.46877456 0.06276714 28.96942567 0.06733045 31.47007751 0.07142639 C37.61528027 0.0824799 43.76044808 0.099236 49.90562439 0.12025452 C49.90562439 1.11025452 49.90562439 2.10025452 49.90562439 3.12025452 C49.34397583 2.95759598 48.78232727 2.79493744 48.20365906 2.62734985 C45.76977483 2.0902773 43.62783459 2.00003352 41.1370697 2.00672913 C40.18332458 2.00684998 39.22957947 2.00697083 38.24693298 2.00709534 C37.2525824 2.0122113 36.25823181 2.01732727 35.23374939 2.02259827 C33.85388855 2.02410889 33.85388855 2.02410889 32.44615173 2.02565002 C29.01596324 2.03087467 25.58579254 2.04483594 22.15562439 2.05775452 C14.48312439 2.07837952 6.81062439 2.09900452 -1.09437561 2.12025452 C-1.42437561 32.15025452 -1.75437561 62.18025452 -2.09437561 93.12025452 C0.87562439 92.62525452 0.87562439 92.62525452 3.90562439 92.12025452 C4.56562439 92.78025452 5.22562439 93.44025452 5.90562439 94.12025452 C2.93562439 94.12025452 -0.03437561 94.12025452 -3.09437561 94.12025452 C-3.11749739 82.01183508 -3.13528985 69.90342085 -3.14618778 57.79498386 C-3.15141697 52.1731749 -3.15851527 46.55138099 -3.16981506 40.92958069 C-3.18064267 35.50907174 -3.18665217 30.08857732 -3.18925285 24.6680584 C-3.19110733 22.59510507 -3.19472838 20.52215258 -3.20010567 18.4492054 C-3.20731441 15.55641559 -3.20836662 12.66368656 -3.207901 9.77088928 C-3.21149628 8.90486588 -3.21509155 8.03884247 -3.21879578 7.14657593 C-3.20658611 0.18411524 -3.20658611 0.18411524 0 0 Z " fill="#EABAD5" transform="translate(227.09437561035156,150.87974548339844)"/>
<path d="M0 0 C1.65 0 3.3 0 5 0 C6.00696568 2.10084209 7.0053589 4.20579489 8 6.3125 C8.556875 7.48425781 9.11375 8.65601563 9.6875 9.86328125 C11 13 11 13 11 16 C9.35 16 7.7 16 6 16 C6 15.01 6 14.02 6 13 C3.6568787 13.25561323 1.32156597 13.59270772 -1 14 C-1.33 14.66 -1.66 15.32 -2 16 C-4.0625 16.625 -4.0625 16.625 -6 17 C-6.34884724 12.10160332 -5.46792622 9.34104063 -3 5.125 C-2.443125 4.15820312 -1.88625 3.19140625 -1.3125 2.1953125 C-0.879375 1.47085938 -0.44625 0.74640625 0 0 Z M2 6 C1.67 6.99 1.34 7.98 1 9 C1.99 8.67 2.98 8.34 4 8 C3.34 7.34 2.68 6.68 2 6 Z " fill="#0D090A" transform="translate(283,245)"/>
<path d="M0 0 C1.2065625 0.0309375 1.2065625 0.0309375 2.4375 0.0625 C3.60647285 2.54060316 4.77277544 5.01990119 5.9375 7.5 C6.43830078 8.56057617 6.43830078 8.56057617 6.94921875 9.64257812 C9.4375 14.94921875 9.4375 14.94921875 9.4375 16.0625 C7.7875 16.0625 6.1375 16.0625 4.4375 16.0625 C4.1075 15.0725 3.7775 14.0825 3.4375 13.0625 C1.1275 13.0625 -1.1825 13.0625 -3.5625 13.0625 C-3.8925 14.0525 -4.2225 15.0425 -4.5625 16.0625 C-6.2125 16.0625 -7.8625 16.0625 -9.5625 16.0625 C-8.58644493 13.58206646 -7.60682337 11.10314915 -6.625 8.625 C-6.34720703 7.91794922 -6.06941406 7.21089844 -5.78320312 6.48242188 C-3.24022931 0.07902998 -3.24022931 0.07902998 0 0 Z M-0.5625 5.0625 C-0.8925 6.3825 -1.2225 7.7025 -1.5625 9.0625 C-0.5725 8.7325 0.4175 8.4025 1.4375 8.0625 C0.7775 7.0725 0.1175 6.0825 -0.5625 5.0625 Z " fill="#070707" transform="translate(203.5625,244.9375)"/>
<path d="M0 0 C2.29296875 0.05859375 2.29296875 0.05859375 5 1 C6.375237 3.41337686 7.36054611 5.49297801 8.3125 8.0625 C8.57611328 8.72572266 8.83972656 9.38894531 9.11132812 10.07226562 C9.75854732 11.70796505 10.38164295 13.3531728 11 15 C9.68 15.33 8.36 15.66 7 16 C6.67 15.34 6.34 14.68 6 14 C4.10466658 13.53476937 4.10466658 13.53476937 1.9375 13.375 C0.638125 13.25125 -0.66125 13.1275 -2 13 C-2.33 13.99 -2.66 14.98 -3 16 C-3.99 16 -4.98 16 -6 16 C-5.37183502 12.05050296 -4.1354471 8.80107972 -2.4375 5.1875 C-1.98246094 4.21167969 -1.52742188 3.23585937 -1.05859375 2.23046875 C-0.70925781 1.49441406 -0.35992187 0.75835937 0 0 Z " fill="#170811" transform="translate(430,245)"/>
<path d="M0 0 C-0.33 1.32 -0.66 2.64 -1 4 C-3.64 4 -6.28 4 -9 4 C-9.33 5.65 -9.66 7.3 -10 9 C-6.48966871 10.68630119 -6.48966871 10.68630119 -2.6875 10.625 C-2.130625 10.41875 -1.57375 10.2125 -1 10 C-1 11.32 -1 12.64 -1 14 C-4.10048928 15.55024464 -6.57894218 15.28992015 -10 15 C-13.10188694 13.17932723 -14.60153891 11.94634508 -16 8.625 C-16 4.99672033 -15.0027193 3.00407895 -13 0 C-8.66474288 -2.69488956 -4.50008813 -2.25004406 0 0 Z " fill="#070506" transform="translate(96,246)"/>
<path d="M0 0 C1.65 0.33 3.3 0.66 5 1 C5.33 2.32 5.66 3.64 6 5 C3.36 5.66 0.72 6.32 -2 7 C-2.33 37.69 -2.66 68.38 -3 100 C-3.33 100 -3.66 100 -4 100 C-4 68.32 -4 36.64 -4 4 C-2.68 4 -1.36 4 0 4 C0 2.68 0 1.36 0 0 Z " fill="#EEBAD7" transform="translate(228,257)"/>
<path d="M0 0 C3.96 0 7.92 0 12 0 C12 0.99 12 1.98 12 3 C9.36 3 6.72 3 4 3 C4 4.32 4 5.64 4 7 C6.31 7 8.62 7 11 7 C11 7.66 11 8.32 11 9 C8.69 9 6.38 9 4 9 C4 10.32 4 11.64 4 13 C6.97 13 9.94 13 13 13 C13 13.99 13 14.98 13 16 C8.71 16 4.42 16 0 16 C0 10.72 0 5.44 0 0 Z " fill="#17060F" transform="translate(56,245)"/>
<path d="M0 0 C32.01 0 64.02 0 97 0 C97 0.33 97 0.66 97 1 C95.25899521 1.00879936 95.25899521 1.00879936 93.4828186 1.01777649 C82.56392427 1.07489954 71.6452311 1.14760605 60.72654152 1.23571491 C55.11263071 1.28051183 49.49879405 1.31974719 43.88476562 1.34643555 C38.47058447 1.37237577 33.05668722 1.41271166 27.64268112 1.46318626 C25.57338355 1.47991802 23.5040368 1.49139283 21.43468094 1.49761391 C18.54420192 1.50718667 15.6544597 1.53516303 12.76416016 1.56762695 C11.90173203 1.56619186 11.03930389 1.56475677 10.15074158 1.5632782 C7.53365176 1.56965706 7.53365176 1.56965706 4 2 C1.9859044 5.0211434 1.73163404 5.80660017 1.5859375 9.23046875 C1.54726563 10.03291016 1.50859375 10.83535156 1.46875 11.66210938 C1.4378125 12.49548828 1.406875 13.32886719 1.375 14.1875 C1.33632813 15.03248047 1.29765625 15.87746094 1.2578125 16.74804688 C1.16363721 18.83167524 1.08073325 20.91580753 1 23 C0.67 23 0.34 23 0 23 C0 15.41 0 7.82 0 0 Z " fill="#E9BFD5" transform="translate(25,151)"/>
<path d="M0 0 C3.96 0 7.92 0 12 0 C12 0.99 12 1.98 12 3 C9.36 3 6.72 3 4 3 C4 4.32 4 5.64 4 7 C6.31 7 8.62 7 11 7 C11 7.66 11 8.32 11 9 C8.69 9 6.38 9 4 9 C4 10.32 4 11.64 4 13 C6.64 13 9.28 13 12 13 C12 13.99 12 14.98 12 16 C8.04 16 4.08 16 0 16 C0 10.72 0 5.44 0 0 Z " fill="#160711" transform="translate(372,245)"/>
<path d="M0 0 C1.98 0 3.96 0 6 0 C6.28875 0.639375 6.5775 1.27875 6.875 1.9375 C7.82823451 4.15206079 7.82823451 4.15206079 10 5 C10.66 3.35 11.32 1.7 12 0 C13.65 0 15.3 0 17 0 C16.00441959 2.68040879 14.98481703 5.02368544 13.4375 7.4375 C11.82141162 10.31835321 11.37908032 12.73990924 11 16 C9.35 15.67 7.7 15.34 6 15 C5.7525 14.01 5.505 13.02 5.25 12 C4.04187859 7.71904804 2.09178706 3.90940785 0 0 Z " fill="#060506" transform="translate(106,245)"/>
<path d="M0 0 C3.96 0 7.92 0 12 0 C12 0.99 12 1.98 12 3 C9.03 3 6.06 3 3 3 C3 4.32 3 5.64 3 7 C5.31 7 7.62 7 10 7 C10 7.66 10 8.32 10 9 C7.69 9 5.38 9 3 9 C3 10.32 3 11.64 3 13 C5.97 13 8.94 13 12 13 C12 13.99 12 14.98 12 16 C8.04 16 4.08 16 0 16 C0 10.72 0 5.44 0 0 Z " fill="#14040E" transform="translate(323,245)"/>
<path d="M0 0 C0.33 0 0.66 0 1 0 C1 6.27 1 12.54 1 19 C1.66 18.67 2.32 18.34 3 18 C3.47001033 14.72444392 3.47001033 14.72444392 3.625 10.9375 C3.69976563 9.64714844 3.77453125 8.35679687 3.8515625 7.02734375 C3.90054687 6.02832031 3.94953125 5.02929688 4 4 C4.33 4 4.66 4 5 4 C5 9.28 5 14.56 5 20 C5.99 20 6.98 20 8 20 C8 18.68 8 17.36 8 16 C9.65 16.33 11.3 16.66 13 17 C13 17.99 13 18.98 13 20 C12.01 19.34 11.02 18.68 10 18 C9.67 18.99 9.34 19.98 9 21 C6 22 6 22 1 21 C1 29.91 1 38.82 1 48 C0.67 48 0.34 48 0 48 C0 32.16 0 16.32 0 0 Z " fill="#EDC3DB" transform="translate(25,241)"/>
<path d="M0 0 C1.32 0 2.64 0 4 0 C4 4.29 4 8.58 4 13 C6.64 13 9.28 13 12 13 C12 13.99 12 14.98 12 16 C8.04 16 4.08 16 0 16 C0 10.72 0 5.44 0 0 Z " fill="#1D0D16" transform="translate(348,245)"/>
<path d="M0 0 C3.3 0 6.6 0 10 0 C10 3.27275026 9.70074844 5.846632 9 9 C7.02 9 5.04 9 3 9 C2.67 7.68 2.34 6.36 2 5 C1.67 8.63 1.34 12.26 1 16 C0.67 16 0.34 16 0 16 C0 10.72 0 5.44 0 0 Z " fill="#331A27" transform="translate(251,245)"/>
<path d="M0 0 C3.63 0 7.26 0 11 0 C11 0.33 11 0.66 11 1 C7.7 1 4.4 1 1 1 C1 4.3 1 7.6 1 11 C1.66 11 2.32 11 3 11 C3 10.34 3 9.68 3 9 C5.31 9 7.62 9 10 9 C10.33 10.32 10.66 11.64 11 13 C10.01 13.495 10.01 13.495 9 14 C9.99 14.66 10.98 15.32 12 16 C8.04 16 4.08 16 0 16 C0 10.72 0 5.44 0 0 Z " fill="#2B1422" transform="translate(169,245)"/>
<path d="M0 0 C2.31 0 4.62 0 7 0 C10.09482002 5.44688323 10.09482002 5.44688323 9.625 8.1875 C9.41875 8.785625 9.2125 9.38375 9 10 C9.33 10.99 9.66 11.98 10 13 C8.68 13 7.36 13 6 13 C5.34 12.01 4.68 11.02 4 10 C1.94996045 8.80767387 1.94996045 8.80767387 0 8 C1.32 7.67 2.64 7.34 4 7 C2.68 6.67 1.36 6.34 0 6 C0 4.02 0 2.04 0 0 Z " fill="#32202A" transform="translate(33,248)"/>
<path d="M0 0 C2.97 0 5.94 0 9 0 C9 0.66 9 1.32 9 2 C7.02 2 5.04 2 3 2 C3 3.32 3 4.64 3 6 C4.98 6 6.96 6 9 6 C9 6.66 9 7.32 9 8 C7.02 8 5.04 8 3 8 C3 9.65 3 11.3 3 13 C3.99 13 4.98 13 6 13 C6 13.66 6 14.32 6 15 C4.02 15 2.04 15 0 15 C0 10.05 0 5.1 0 0 Z " fill="#0A0107" transform="translate(398,246)"/>
<path d="M0 0 C6.875 0.875 6.875 0.875 8 2 C8.25 4.9375 8.25 4.9375 8 8 C5 10 5 10 0 10 C0 6.7 0 3.4 0 0 Z " fill="#F2B9D7" transform="translate(457,248)"/>
<path d="M0 0 C2.97 0 5.94 0 9 0 C9 0.33 9 0.66 9 1 C6.36 1 3.72 1 1 1 C1 4.3 1 7.6 1 11 C1.66 11 2.32 11 3 11 C3 8.36 3 5.72 3 3 C3.33 3 3.66 3 4 3 C4 6.3 4 9.6 4 13 C5.98 13 7.96 13 10 13 C10 13.99 10 14.98 10 16 C6.7 16 3.4 16 0 16 C0 10.72 0 5.44 0 0 Z " fill="#25111D" transform="translate(453,245)"/>
<path d="M0 0 C1.65 0.33 3.3 0.66 5 1 C5.66 3.31 6.32 5.62 7 8 C6.34 8 5.68 8 5 8 C5 8.66 5 9.32 5 10 C3.35 10 1.7 10 0 10 C-0.33 9.01 -0.66 8.02 -1 7 C-1.99 7.495 -1.99 7.495 -3 8 C-1.125 2.25 -1.125 2.25 0 0 Z " fill="#4C3642" transform="translate(430,245)"/>
<path d="M0 0 C1.32 0 2.64 0 4 0 C4 5.28 4 10.56 4 16 C2.68 16 1.36 16 0 16 C0 10.72 0 5.44 0 0 Z " fill="#28111E" transform="translate(151,245)"/>
<path d="M0 0 C0.33 0.66 0.66 1.32 1 2 C5.455 1.505 5.455 1.505 10 1 C12.14809171 4.22213757 12.29386153 5.27775401 12 9 C11 10 11 10 7.4375 10.0625 C6.303125 10.041875 5.16875 10.02125 4 10 C7 8 7 8 9 8 C8.67 7.01 8.34 6.02 8 5 C5.69 4.67 3.38 4.34 1 4 C1 4.66 1 5.32 1 6 C0.34 6 -0.32 6 -1 6 C-1.042721 4.33388095 -1.04063832 2.66617115 -1 1 C-0.67 0.67 -0.34 0.34 0 0 Z " fill="#0A0007" transform="translate(171,250)"/>
<path d="M0 0 C0.33 0 0.66 0 1 0 C1 2.64 1 5.28 1 8 C0.030625 7.690625 -0.93875 7.38125 -1.9375 7.0625 C-6.25537666 5.81491678 -10.53139132 5.41248695 -15 5 C-15 10.28 -15 15.56 -15 21 C-15.33 21 -15.66 21 -16 21 C-16.04898437 20.07316406 -16.09796875 19.14632813 -16.1484375 18.19140625 C-16.22320312 16.99386719 -16.29796875 15.79632813 -16.375 14.5625 C-16.44460938 13.36753906 -16.51421875 12.17257813 -16.5859375 10.94140625 C-16.72257812 9.97074219 -16.85921875 9.00007812 -17 8 C-17.66 7.67 -18.32 7.34 -19 7 C-18.34 5.68 -17.68 4.36 -17 3 C-14.54126232 3.14058476 -12.08314825 3.28722999 -9.625 3.4375 C-8.92632812 3.47681641 -8.22765625 3.51613281 -7.5078125 3.55664062 C-2.2265625 3.88671875 -2.2265625 3.88671875 0 5 C0 3.35 0 1.7 0 0 Z " fill="#E3B3CE" transform="translate(468,240)"/>
<path d="M0 0 C0.66 1.32 1.32 2.64 2 4 C-3.21546883 10.76079293 -7.81619791 15.29179786 -16 18 C-19.0625 18.25 -19.0625 18.25 -21 18 C-18.38735057 16.25823372 -15.96619069 15.0453757 -13.125 13.75 C-6.59629198 10.51890724 -3.54550597 6.34458962 0 0 Z " fill="#F5C2DE" transform="translate(145,239)"/>
<path d="M0 0 C1.81242052 -0.02687279 3.62495233 -0.04633715 5.4375 -0.0625 C6.44683594 -0.07410156 7.45617187 -0.08570313 8.49609375 -0.09765625 C11 0 11 0 12 1 C12.04063832 2.66617115 12.042721 4.33388095 12 6 C11.34 6 10.68 6 10 6 C10 4.68 10 3.36 10 2 C7.69 2 5.38 2 3 2 C3 3.98 3 5.96 3 8 C2.01 8 1.02 8 0 8 C0 5.36 0 2.72 0 0 Z " fill="#070207" transform="translate(225,246)"/>
<path d="M0 0 C0.33 0 0.66 0 1 0 C1.04898438 0.99902344 1.09796875 1.99804688 1.1484375 3.02734375 C1.22320312 4.31769531 1.29796875 5.60804688 1.375 6.9375 C1.44460937 8.22527344 1.51421875 9.51304687 1.5859375 10.83984375 C1.72257812 11.88269531 1.85921875 12.92554688 2 14 C2.66 14.33 3.32 14.66 4 15 C4 14.34 4 13.68 4 13 C6.97 13 9.94 13 13 13 C13 13.99 13 14.98 13 16 C8.71 16 4.42 16 0 16 C0 10.72 0 5.44 0 0 Z " fill="#341D2C" transform="translate(56,245)"/>
<path d="M0 0 C0.33 0 0.66 0 1 0 C1 1.65 1 3.3 1 5 C0.34 5 -0.32 5 -1 5 C-1 6.65 -1 8.3 -1 10 C-1.33 9.34 -1.66 8.68 -2 8 C-4.31 8 -6.62 8 -9 8 C-9 6.68 -9 5.36 -9 4 C-6.36 4 -3.72 4 -1 4 C-0.67 2.68 -0.34 1.36 0 0 Z " fill="#D3A1BC" transform="translate(69,244)"/>
<path d="M0 0 C0.33 0 0.66 0 1 0 C1 5.28 1 10.56 1 16 C1.99 16 2.98 16 4 16 C4 14.68 4 13.36 4 12 C5.65 12.33 7.3 12.66 9 13 C9 13.99 9 14.98 9 16 C8.01 15.34 7.02 14.68 6 14 C5.67 14.99 5.34 15.98 5 17 C1.71023192 18.09658936 0.28696233 17.79953138 -3 17 C-3 16.34 -3 15.68 -3 15 C-2.34 14.67 -1.68 14.34 -1 14 C-0.52998967 10.72444392 -0.52998967 10.72444392 -0.375 6.9375 C-0.30023437 5.64714844 -0.22546875 4.35679687 -0.1484375 3.02734375 C-0.09945313 2.02832031 -0.05046875 1.02929688 0 0 Z " fill="#CB9BB5" transform="translate(29,245)"/>
<path d="M0 0 C1.60332791 -0.08121924 3.20784026 -0.13929134 4.8125 -0.1875 C6.15248047 -0.23970703 6.15248047 -0.23970703 7.51953125 -0.29296875 C10 0 10 0 11.8125 1.34375 C13.43567041 3.60764557 13.2202914 5.28307271 13 8 C11.5 6.625 11.5 6.625 10 5 C10 4.34 10 3.68 10 3 C6.7 3 3.4 3 0 3 C0 2.01 0 1.02 0 0 Z " fill="#1C0A14" transform="translate(30,245)"/>
<path d="M0 0 C0.33 0 0.66 0 1 0 C1 1.98 1 3.96 1 6 C2.98 6 4.96 6 7 6 C6.67 6.66 6.34 7.32 6 8 C4.68 8 3.36 8 2 8 C2 9.65 2 11.3 2 13 C1.01 13 0.02 13 -1 13 C-1.02696365 11.20841511 -1.04637917 9.41671527 -1.0625 7.625 C-1.07410156 6.62726563 -1.08570313 5.62953125 -1.09765625 4.6015625 C-1 2 -1 2 0 0 Z " fill="#0C0006" transform="translate(253,248)"/>
<path d="M0 0 C0.33 0.66 0.66 1.32 1 2 C3.64 2 6.28 2 9 2 C9 2.66 9 3.32 9 4 C6.69 4 4.38 4 2 4 C2 5.98 2 7.96 2 10 C1.01 9.67 0.02 9.34 -1 9 C-1.09765625 2.84765625 -1.09765625 2.84765625 -1 1 C-0.67 0.67 -0.34 0.34 0 0 Z " fill="#090007" transform="translate(58,250)"/>
<path d="M0 0 C0 5.61 0 11.22 0 17 C-1.32 17 -2.64 17 -4 17 C-4 16.34 -4 15.68 -4 15 C-3.34 14.67 -2.68 14.34 -2 14 C-2 10.7 -2 7.4 -2 4 C-3.32 3.34 -4.64 2.68 -6 2 C-2.25 0 -2.25 0 0 0 Z " fill="#EFC3DA" transform="translate(469,258)"/>
<path d="M0 0 C3.3 0 6.6 0 10 0 C10 0.66 10 1.32 10 2 C7.36 2 4.72 2 2 2 C2 4.64 2 7.28 2 10 C1.34 10 0.68 10 0 10 C0 6.7 0 3.4 0 0 Z " fill="#050006" transform="translate(454,246)"/>
<path d="M0 0 C1.65 0 3.3 0 5 0 C5.38218767 1.65614657 5.71395102 3.32457024 6 5 C5 6 5 6 2.4375 6.0625 C1.2309375 6.0315625 1.2309375 6.0315625 0 6 C0 4.02 0 2.04 0 0 Z " fill="#DAACC5" transform="translate(255,248)"/>
<path d="M0 0 C1.65 0 3.3 0 5 0 C5.38218767 1.65614657 5.71395102 3.32457024 6 5 C5 6 5 6 2.4375 6.0625 C1.2309375 6.0315625 1.2309375 6.0315625 0 6 C0 4.02 0 2.04 0 0 Z " fill="#DEA9C3" transform="translate(228,248)"/>
<path d="M0 0 C1.65 0 3.3 0 5 0 C5.38218767 1.65614657 5.71395102 3.32457024 6 5 C5 6 5 6 2.4375 6.0625 C1.2309375 6.0315625 1.2309375 6.0315625 0 6 C0 4.02 0 2.04 0 0 Z " fill="#D5A6C0" transform="translate(33,248)"/>
<path d="M0 0 C2.15377564 2.62198774 3.40072174 4.64404172 4 8 C2.68 8 1.36 8 0 8 C-0.33 7.34 -0.66 6.68 -1 6 C-2.89533342 5.53476937 -2.89533342 5.53476937 -5.0625 5.375 C-6.361875 5.25125 -7.66125 5.1275 -9 5 C-9 4.67 -9 4.34 -9 4 C-6.36 3.67 -3.72 3.34 -1 3 C-0.67 2.01 -0.34 1.02 0 0 Z " fill="#331C28" transform="translate(437,253)"/>
<path d="M0 0 C3.875 1.75 3.875 1.75 5 4 C4.5359375 4.8971875 4.5359375 4.8971875 4.0625 5.8125 C2.81718011 8.3763939 2.84363398 10.18541165 3 13 C2.01 13.495 2.01 13.495 1 14 C0.34 12.35 -0.32 10.7 -1 9 C-0.34 9 0.32 9 1 9 C1.26932521 4.34947128 1.26932521 4.34947128 0 0 Z " fill="#DFB0CA" transform="translate(263,246)"/>
<path d="M0 0 C2.64 0 5.28 0 8 0 C7.67 1.32 7.34 2.64 7 4 C4.69 4 2.38 4 0 4 C0 2.68 0 1.36 0 0 Z " fill="#D4A1BD" transform="translate(376,248)"/>
<path d="M0 0 C1.98 0 3.96 0 6 0 C6.33 1.32 6.66 2.64 7 4 C4.69 4 2.38 4 0 4 C0 2.68 0 1.36 0 0 Z " fill="#DAA7BE" transform="translate(401,254)"/>
<path d="M0 0 C1.98 0 3.96 0 6 0 C6.33 1.32 6.66 2.64 7 4 C4.69 4 2.38 4 0 4 C0 2.68 0 1.36 0 0 Z " fill="#DAA9C0" transform="translate(173,254)"/>
<path d="M0 0 C1.98 0 3.96 0 6 0 C6 1.32 6 2.64 6 4 C4.02 4 2.04 4 0 4 C0 2.68 0 1.36 0 0 Z " fill="#C99EB2" transform="translate(401,248)"/>
<path d="M0 0 C2 3 2 3 2 6 C-0.88415883 7.44207941 -3.41721528 7.09394887 -6.625 7.0625 C-7.81351563 7.05347656 -9.00203125 7.04445313 -10.2265625 7.03515625 C-11.14179688 7.02355469 -12.05703125 7.01195312 -13 7 C-13 6.67 -13 6.34 -13 6 C-7.555 5.505 -7.555 5.505 -2 5 C-1.34 3.35 -0.68 1.7 0 0 Z " fill="#D9ACC7" transform="translate(183,255)"/>
<path d="M0 0 C6.875 0.875 6.875 0.875 8 2 C8.04080783 3.99958364 8.04254356 6.00045254 8 8 C7.34 7.67 6.68 7.34 6 7 C6 6.01 6 5.02 6 4 C5.34 4 4.68 4 4 4 C4 3.34 4 2.68 4 2 C2.68 1.34 1.36 0.68 0 0 Z " fill="#DBA9C3" transform="translate(457,248)"/>
<path d="M0 0 C0.33 0 0.66 0 1 0 C1.02719556 2.37507855 1.04693247 4.74983964 1.0625 7.125 C1.07087891 7.79015625 1.07925781 8.4553125 1.08789062 9.140625 C1.10782292 13.20681354 0.78890161 17.0120092 0 21 C-0.33 21 -0.66 21 -1 21 C-1.38063221 18.6739143 -1.71269945 16.33944736 -2 14 C-1.67 13.67 -1.34 13.34 -1 13 C-0.76518307 10.81707226 -0.58636677 8.62796826 -0.4375 6.4375 C-0.35371094 5.23996094 -0.26992188 4.04242188 -0.18359375 2.80859375 C-0.12300781 1.88175781 -0.06242187 0.95492187 0 0 Z " fill="#D8A9B6" transform="translate(277,240)"/>
<path d="M0 0 C3.63 0.66 7.26 1.32 11 2 C10.34 2.66 9.68 3.32 9 4 C6.6171875 3.9765625 6.6171875 3.9765625 3.875 3.625 C2.96492187 3.51414063 2.05484375 3.40328125 1.1171875 3.2890625 C0.41851562 3.19367188 -0.28015625 3.09828125 -1 3 C-0.67 2.01 -0.34 1.02 0 0 Z " fill="#EEBCD7" transform="translate(252,242)"/>
<path d="M0 0 C0.99 0.33 1.98 0.66 3 1 C2 4 2 4 0 5 C-2.3329866 5.04022391 -4.66706666 5.04320247 -7 5 C-6.401875 4.731875 -5.80375 4.46375 -5.1875 4.1875 C-3.02775192 3.01506533 -1.64209744 1.80630718 0 0 Z " fill="#200F16" transform="translate(93,256)"/>
<path d="M0 0 C1.98 0 3.96 0 6 0 C5.67 1.32 5.34 2.64 5 4 C3.35 4 1.7 4 0 4 C0 2.68 0 1.36 0 0 Z " fill="#D4ACBF" transform="translate(173,248)"/>
<path d="M0 0 C0.33 0 0.66 0 1 0 C1 3.3 1 6.6 1 10 C0.01 9.67 -0.98 9.34 -2 9 C-2 5.58012972 -1.52745657 3.05491313 0 0 Z " fill="#EFBAD8" transform="translate(276,347)"/>
<path d="M0 0 C2.64 0 5.28 0 8 0 C7.01 1.485 7.01 1.485 6 3 C2.875 3.1875 2.875 3.1875 0 3 C0 2.01 0 1.02 0 0 Z " fill="#EBB7D4" transform="translate(327,248)"/>
<path d="M0 0 C2.31 0 4.62 0 7 0 C7 0.99 7 1.98 7 3 C4.69 3 2.38 3 0 3 C0 2.01 0 1.02 0 0 Z " fill="#F5BED9" transform="translate(327,255)"/>
<path d="M0 0 C2.475 0.495 2.475 0.495 5 1 C5 1.99 5 2.98 5 4 C4.34 4 3.68 4 3 4 C2.67 5.32 2.34 6.64 2 8 C1.34 5.36 0.68 2.72 0 0 Z " fill="#E2AFCC" transform="translate(41,245)"/>
<path d="M0 0 C0.66 0.33 1.32 0.66 2 1 C4.04946506 1.02988803 6.07774318 0.93392724 8.125 0.83984375 C10 1 10 1 12 3 C8.79984144 4.06671952 7.11455706 3.94845472 3.8125 3.5625 C2.91144531 3.46066406 2.01039063 3.35882813 1.08203125 3.25390625 C0.39496094 3.17011719 -0.29210937 3.08632812 -1 3 C-0.67 2.01 -0.34 1.02 0 0 Z " fill="#EEB9D6" transform="translate(399,242)"/>
<path d="M0 0 C2.64 0 5.28 0 8 0 C8 0.99 8 1.98 8 3 C5.125 3.1875 5.125 3.1875 2 3 C1.34 2.01 0.68 1.02 0 0 Z " fill="#1A0614" transform="translate(352,258)"/>
<path d="M0 0 C0.33 1.32 0.66 2.64 1 4 C2.32 3.67 3.64 3.34 5 3 C5 4.32 5 5.64 5 7 C3.35 6.67 1.7 6.34 0 6 C0 4.02 0 2.04 0 0 Z " fill="#331D27" transform="translate(112,254)"/>
<path d="M0 0 C2.31 0 4.62 0 7 0 C5.68 0.33 4.36 0.66 3 1 C3 1.66 3 2.32 3 3 C3.99 3.33 4.98 3.66 6 4 C4.02 4 2.04 4 0 4 C0 2.68 0 1.36 0 0 Z " fill="#D1A1B9" transform="translate(60,254)"/>
<path d="M0 0 C0.66 0 1.32 0 2 0 C5 3.46153846 5 3.46153846 5 6 C3.68 6 2.36 6 1 6 C0.67 4.02 0.34 2.04 0 0 Z " fill="#190812" transform="translate(38,255)"/>
<path d="M0 0 C1.32 0.33 2.64 0.66 4 1 C4 1.66 4 2.32 4 3 C4.66 3.33 5.32 3.66 6 4 C3.525 5.485 3.525 5.485 1 7 C0.67 4.69 0.34 2.38 0 0 Z " fill="#FDB9DE" transform="translate(457,249)"/>
<path d="M0 0 C-0.33 1.98 -0.66 3.96 -1 6 C-1.33 5.34 -1.66 4.68 -2 4 C-4.01669827 2.86649466 -4.01669827 2.86649466 -6 2 C-2.25 0 -2.25 0 0 0 Z " fill="#DCABC4" transform="translate(469,258)"/>
<path d="M0 0 C0.99 0 1.98 0 3 0 C2.67 1.32 2.34 2.64 2 4 C2.66 4 3.32 4 4 4 C3.67 5.32 3.34 6.64 3 8 C2.01 7.67 1.02 7.34 0 7 C0 4.69 0 2.38 0 0 Z " fill="#E7B1CD" transform="translate(410,246)"/>
<path d="M0 0 C2.475 0.99 2.475 0.99 5 2 C4.67 2.99 4.34 3.98 4 5 C1.13275314 4.42655063 0.1385485 4.1385485 -2 2 C-1.34 2 -0.68 2 0 2 C0 1.34 0 0.68 0 0 Z " fill="#2F1E27" transform="translate(464,246)"/>
<path d="M0 0 C0.66 0 1.32 0 2 0 C1.67 1.32 1.34 2.64 1 4 C-0.98 4 -2.96 4 -5 4 C-5 3.34 -5 2.68 -5 2 C-3.35 2 -1.7 2 0 2 C0 1.34 0 0.68 0 0 Z " fill="#0D0004" transform="translate(435,253)"/>
<path d="M0 0 C0.99 0.33 1.98 0.66 3 1 C2.67 2.65 2.34 4.3 2 6 C0.68 5.67 -0.64 5.34 -2 5 C-1.34 4.01 -0.68 3.02 0 2 C0 1.34 0 0.68 0 0 Z " fill="#2D1521" transform="translate(180,246)"/>
<path d="" fill="#FFFFFF" transform="translate(0,0)"/>
<path d="" fill="#FFFFFF" transform="translate(0,0)"/>
<path d="" fill="#FFFFFF" transform="translate(0,0)"/>
<path d="" fill="#FFFFFF" transform="translate(0,0)"/>
<path d="" fill="#FFFFFF" transform="translate(0,0)"/>
<path d="" fill="#FFFFFF" transform="translate(0,0)"/>
<path d="" fill="#FFFFFF" transform="translate(0,0)"/>
<path d="" fill="#FFFFFF" transform="translate(0,0)"/>
<path d="" fill="#FFFFFF" transform="translate(0,0)"/>
<path d="" fill="#FFFFFF" transform="translate(0,0)"/>
<path d="" fill="#FFFFFF" transform="translate(0,0)"/>
<path d="" fill="#FFFFFF" transform="translate(0,0)"/>
<path d="" fill="#FFFFFF" transform="translate(0,0)"/>
<path d="" fill="#FFFFFF" transform="translate(0,0)"/>
<path d="" fill="#FFFFFF" transform="translate(0,0)"/>
<path d="" fill="#FFFFFF" transform="translate(0,0)"/>
<path d="" fill="#FFFFFF" transform="translate(0,0)"/>
<path d="" fill="#FFFFFF" transform="translate(0,0)"/>
<path d="" fill="#FFFFFF" transform="translate(0,0)"/>
<path d="" fill="#FFFFFF" transform="translate(0,0)"/>
<path d="" fill="#FFFFFF" transform="translate(0,0)"/>
<path d="" fill="#FFFFFF" transform="translate(0,0)"/>
<path d="" fill="#FFFFFF" transform="translate(0,0)"/>
<path d="" fill="#FFFFFF" transform="translate(0,0)"/>
<path d="" fill="#FFFFFF" transform="translate(0,0)"/>
<path d="" fill="#FFFFFF" transform="translate(0,0)"/>
<path d="" fill="#FFFFFF" transform="translate(0,0)"/>
<path d="" fill="#FFFFFF" transform="translate(0,0)"/>
<path d="" fill="#FFFFFF" transform="translate(0,0)"/>
<path d="" fill="#FFFFFF" transform="translate(0,0)"/>
<path d="" fill="#FFFFFF" transform="translate(0,0)"/>
<path d="" fill="#FFFFFF" transform="translate(0,0)"/>
<path d="" fill="#FFFFFF" transform="translate(0,0)"/>
<path d="" fill="#FFFFFF" transform="translate(0,0)"/>
<path d="" fill="#FFFFFF" transform="translate(0,0)"/>
<path d="" fill="#FFFFFF" transform="translate(0,0)"/>
<path d="" fill="#FFFFFF" transform="translate(0,0)"/>
<path d="" fill="#FFFFFF" transform="translate(0,0)"/>
<path d="" fill="#FFFFFF" transform="translate(0,0)"/>
<path d="" fill="#FFFFFF" transform="translate(0,0)"/>
<path d="" fill="#FFFFFF" transform="translate(0,0)"/>
<path d="" fill="#FFFFFF" transform="translate(0,0)"/>
<path d="" fill="#FFFFFF" transform="translate(0,0)"/>
<path d="" fill="#FFFFFF" transform="translate(0,0)"/>
<path d="" fill="#FFFFFF" transform="translate(0,0)"/>
<path d="" fill="#FFFFFF" transform="translate(0,0)"/>
<path d="" fill="#FFFFFF" transform="translate(0,0)"/>
<path d="" fill="#FFFFFF" transform="translate(0,0)"/>
<path d="" fill="#FFFFFF" transform="translate(0,0)"/>
<path d="" fill="#FFFFFF" transform="translate(0,0)"/>
<path d="" fill="#FFFFFF" transform="translate(0,0)"/>
<path d="" fill="#FFFFFF" transform="translate(0,0)"/>
<path d="" fill="#FFFFFF" transform="translate(0,0)"/>
<path d="" fill="#FFFFFF" transform="translate(0,0)"/>
<path d="" fill="#FFFFFF" transform="translate(0,0)"/>
<path d="" fill="#FFFFFF" transform="translate(0,0)"/>
<path d="" fill="#FFFFFF" transform="translate(0,0)"/>
<path d="" fill="#FFFFFF" transform="translate(0,0)"/>
<path d="" fill="#FFFFFF" transform="translate(0,0)"/>
<path d="" fill="#FFFFFF" transform="translate(0,0)"/>
<path d="" fill="#FFFFFF" transform="translate(0,0)"/>
<path d="" fill="#FFFFFF" transform="translate(0,0)"/>
</svg>
